<svg id="svg" version="1.1" xmlns="http://www.w3.org/2000/svg" style="display: block;" viewBox="0 0 196 200"><path d="M0 0 C64.68 0 129.36 0 196 0 C196 66 196 132 196 200 C131.32 200 66.64 200 0 200 C0 134 0 68 0 0 Z " transform="translate(0,0)" style="fill: #F6F6F6;"/><path d="M0 0 C64.68 0 129.36 0 196 0 C196 66 196 132 196 200 C131.32 200 66.64 200 0 200 C0 134 0 68 0 0 Z M38.0625 48.4375 C27.99875521 61.6812385 18.69000218 76.89369599 18 94 C17.9484375 95.14855469 17.896875 96.29710938 17.84375 97.48046875 C17.20425069 118.73721457 22.90091242 137.22090119 36 154 C36.68835938 154.88429687 37.37671875 155.76859375 38.0859375 156.6796875 C48.81335421 169.48080558 64.73005895 179.17754397 81 183 C84.3765665 183.25451668 84.3765665 183.25451668 87 183 C87 183.66 87 184.32 87 185 C112.72623141 185.87918246 132.64891362 181.45614162 153 165 C153.77730469 164.39800781 154.55460938 163.79601562 155.35546875 163.17578125 C168.69305479 152.22564607 178.80636463 134.07413701 181 117 C182.8133836 93.47660112 179.54196942 71.8349358 164.5 53 C163.01937243 51.31609983 161.52066281 49.64783567 160 48 C159.09894531 46.96166016 159.09894531 46.96166016 158.1796875 45.90234375 C144.11468744 30.58915105 123.36959332 22.02207492 102.875 20.68359375 C78.99613514 19.70737038 53.62753502 29.9803132 38.0625 48.4375 Z " transform="translate(0,0)" style="fill: #000000;"/><path d="M0 0 C2.1095874 1.84713725 4.18251712 3.73102681 6.25 5.625 C7.06339844 6.34429687 7.87679687 7.06359375 8.71484375 7.8046875 C24.87796135 22.859964 35.2944323 45.61708143 36.25 67.625 C37.16948835 96.38774509 30.05373317 120.72399724 10.68359375 142.51171875 C0.48916132 153.1513229 -11.37077525 160.66839014 -24.75 166.625 C-25.8834082 167.13998047 -27.01681641 167.65496094 -28.18457031 168.18554688 C-33.74575371 170.2396537 -39.31529956 170.13044319 -45.18359375 170.1640625 C-46.37493423 170.17641937 -47.56627472 170.18877625 -48.79371643 170.20150757 C-51.31091431 170.22102288 -53.82818795 170.23229689 -56.34545898 170.23583984 C-60.14506084 170.24984359 -63.94129904 170.31714028 -67.74023438 170.38671875 C-92.71230625 170.6114513 -111.22027201 162.62964832 -129.13671875 145.23828125 C-147.48929205 126.88570795 -157.48264384 103.34653267 -157.9375 77.5 C-157.69009528 52.66056565 -150.57356734 30.1911214 -133.75 11.625 C-133.01394531 10.80773438 -132.27789062 9.99046875 -131.51953125 9.1484375 C-97.57873757 -26.61951147 -38.39871628 -32.49251093 0 0 Z M-121.6875 21.0625 C-131.75124479 34.3062385 -141.05999782 49.51869599 -141.75 66.625 C-141.8015625 67.77355469 -141.853125 68.92210938 -141.90625 70.10546875 C-142.54574931 91.36221457 -136.84908758 109.84590119 -123.75 126.625 C-123.06164062 127.50929687 -122.37328125 128.39359375 -121.6640625 129.3046875 C-110.93664579 142.10580558 -95.01994105 151.80254397 -78.75 155.625 C-75.3734335 155.87951668 -75.3734335 155.87951668 -72.75 155.625 C-72.75 156.285 -72.75 156.945 -72.75 157.625 C-47.02376859 158.50418246 -27.10108638 154.08114162 -6.75 137.625 C-5.97269531 137.02300781 -5.19539062 136.42101562 -4.39453125 135.80078125 C8.94305479 124.85064607 19.05636463 106.69913701 21.25 89.625 C23.0633836 66.10160112 19.79196942 44.4599358 4.75 25.625 C3.26937243 23.94109983 1.77066281 22.27283567 0.25 20.625 C-0.65105469 19.58666016 -0.65105469 19.58666016 -1.5703125 18.52734375 C-15.63531256 3.21415105 -36.38040668 -5.35292508 -56.875 -6.69140625 C-80.75386486 -7.66762962 -106.12246498 2.6053132 -121.6875 21.0625 Z " transform="translate(159.75,27.375)" style="fill: #33536A;"/><path d="M0 0 C1.18859619 0.00757324 2.37719238 0.01514648 3.60180664 0.02294922 C21.3662776 0.35544905 36.15486516 5.91230111 49.75 17.4375 C50.41515625 17.94667969 51.0803125 18.45585938 51.765625 18.98046875 C64.92989406 29.47560452 73.31635702 47.018522 75.75 63.4375 C78.04570901 87.99916986 70.2381215 107.67724015 54.75 126.4375 C50.94366119 124.9063137 48.89615217 122.58566717 46.25 119.5 C43.59461251 116.41265736 41.11056911 113.75171009 37.75 111.4375 C37.98569179 107.66643138 39.26449638 105.60369215 41.5625 102.75 C47.53672285 95.16733253 49.89290506 86.59046773 49.84765625 77.04296875 C49.84443359 75.84091797 49.84121094 74.63886719 49.83789062 73.40039062 C49.82951172 72.15451172 49.82113281 70.90863281 49.8125 69.625 C49.80798828 68.35978516 49.80347656 67.09457031 49.79882812 65.79101562 C49.78706251 62.6731289 49.77062272 59.55533867 49.75 56.4375 C44.02276891 59.39349024 39.78097348 62.94886392 35.1875 67.4375 C28.41842386 73.92129547 21.47915191 80.13404887 14.28808594 86.14550781 C13.22662562 87.03713448 12.17301218 87.9381575 11.12597656 88.84667969 C7.52469219 91.94267616 5.20177146 93.27314851 0.4375 93.8125 C-5.5153265 93.20712781 -8.07047726 89.85897613 -11.6875 85.5 C-13.25 82.4375 -13.25 82.4375 -13.375 79.5 C-10.69720969 72.21045973 -5.85183795 68.97819595 0.92504883 65.70678711 C5.66022329 63.57921196 10.49948877 61.77710336 15.375 60 C17.48177772 59.22137279 19.58854852 58.44272688 21.6953125 57.6640625 C23.23106934 57.09993652 23.23106934 57.09993652 24.79785156 56.52441406 C28.95573165 54.99357697 33.10316702 53.43545565 37.25 51.875 C38.53118666 51.39436238 39.81242914 50.91387351 41.09375 50.43359375 C41.9703125 50.10488281 42.846875 49.77617188 43.75 49.4375 C43.09678037 43.35529946 36.8852874 38.73507027 32.54394531 34.87353516 C20.69938057 25.39208036 6.44449182 23.14052776 -8.25 24.4375 C-17.12590621 26.19049148 -28.78824762 31.97574762 -35.25 38.4375 C-35.9925 37.4165625 -35.9925 37.4165625 -36.75 36.375 C-38.83124757 33.92953411 -40.82306844 32.00673083 -43.25 29.9375 C-46.29068944 27.32307543 -49.07161623 24.84714417 -51.25 21.4375 C-48.84243569 14.21480707 -38.79702439 10.50579191 -32.3125 7.1875 C-31.68142334 6.85854736 -31.05034668 6.52959473 -30.40014648 6.19067383 C-20.52135186 1.28944032 -10.95604525 -0.09787038 0 0 Z " transform="translate(98.25,29.5625)" style="fill: #FB6C53;"/><path d="M0 0 C0.74320496 -0.00240692 1.48640991 -0.00481384 2.25213623 -0.0072937 C15.16601239 0.02460317 25.12432286 2.09971412 36.375 8.6875 C37.7120178 9.40648682 39.0505472 10.12267028 40.390625 10.8359375 C61.12225519 22.2300456 77.5600248 40.14678641 85.375 62.6875 C86.59036308 67.79202495 87.05507541 72.64727378 85.375 77.6875 C84.385 77.6875 83.395 77.6875 82.375 77.6875 C82.1790625 76.718125 81.983125 75.74875 81.78125 74.75 C78.41225983 59.2229246 72.20362813 46.44997313 61.375 34.6875 C60.84777344 34.06875 60.32054687 33.45 59.77734375 32.8125 C46.20855028 17.82089186 25.01801913 9.66212309 5.25 8.37109375 C-16.57636855 7.47878119 -36.93175048 15.82513802 -53.625 29.6875 C-66.47209797 42.88764799 -77.86523055 61.85154914 -78.625 80.6875 C-78.6765625 81.83605469 -78.728125 82.98460938 -78.78125 84.16796875 C-79.42207046 105.46862906 -73.68773008 123.84759496 -60.625 140.6875 C-60.01011719 141.49832031 -59.39523438 142.30914062 -58.76171875 143.14453125 C-47.33039821 157.12158484 -28.47520914 167.39901165 -10.625 169.6875 C-10.625 170.3475 -10.625 171.0075 -10.625 171.6875 C14.94499445 171.29763153 35.07346887 166.9952873 55.375 150.6875 C56.07882813 150.15898437 56.78265625 149.63046875 57.5078125 149.0859375 C71.12241904 138.24764288 78.24779301 121.0992172 82.375 104.6875 C86.25 106.5625 86.25 106.5625 87.375 107.6875 C88.18133498 115.02850804 85.88022614 119.70942053 82.375 126.0625 C81.86807617 126.99787598 81.36115234 127.93325195 80.83886719 128.89697266 C77.23965776 135.41042481 73.52804774 141.28497248 68.375 146.6875 C67.84922363 147.25662109 67.32344727 147.82574219 66.78173828 148.41210938 C58.7654313 157.05149103 50.97244876 164.33712053 40.375 169.6875 C39.61541992 170.07164062 38.85583984 170.45578125 38.07324219 170.8515625 C20.75821346 179.49887955 2.9819619 184.68022767 -16.6171875 179.91796875 C-19.81250945 178.74358419 -22.64301817 177.33146032 -25.625 175.6875 C-27.14477352 174.93531306 -28.66714173 174.18835653 -30.19140625 173.4453125 C-43.96380758 166.61685348 -55.03742843 158.48218671 -66 147.75 C-66.7619165 147.01072266 -67.52383301 146.27144531 -68.30883789 145.50976562 C-73.43552552 140.35990589 -77.13116365 135.04011901 -80.625 128.6875 C-81.20507812 127.74261719 -81.78515625 126.79773438 -82.3828125 125.82421875 C-91.69867513 109.13551628 -92.9132477 87.96151469 -88.02856445 69.80004883 C-85.55774376 61.56701899 -81.54932341 54.67822661 -76.625 47.6875 C-76.05144775 46.86596436 -76.05144775 46.86596436 -75.46630859 46.02783203 C-62.91333887 28.24758889 -45.30238563 9.81902755 -23.4296875 4.50390625 C-20.59585936 3.8348655 -20.59585936 3.8348655 -18.38964844 2.17236328 C-12.90014182 -0.77599236 -6.12575401 0.00461239 0 0 Z " transform="translate(97.625,13.3125)" style="fill: #1E364B;"/><path d="M0 0 C1.04220703 1.05767578 1.04220703 1.05767578 2.10546875 2.13671875 C5.09072138 5.12197138 8.19067808 7.97137652 11.3125 10.8125 C11.86228516 11.31458984 12.41207031 11.81667969 12.97851562 12.33398438 C14.31805239 13.55703968 15.65888992 14.77867008 17 16 C16.3061011 20.89381328 13.0382228 24.70687645 10.32617188 28.69140625 C3.14119565 39.49817309 3.19996442 53.64297708 5.38671875 66.22509766 C7.22931027 73.35039906 11.17336598 79.21089127 15.7421875 84.87890625 C17 87 17 87 17 88.96484375 C15.55756437 91.90042563 13.48864746 93.75282212 11.125 96 C8.13163967 98.86245536 5.37638147 101.60067287 3 105 C-0.29167865 104.7090544 -1.68661425 104.32183931 -4.02734375 101.91796875 C-15.65998586 85.28971346 -24.49124577 63.76912263 -22 43 C-18.49331067 26.68981707 -12.13899707 11.68940459 0 0 Z " transform="translate(46,50)" style="fill: #CBD4DD;"/><path d="M0 0 C1.18859619 0.00757324 2.37719238 0.01514648 3.60180664 0.02294922 C20.5203917 0.3396165 37.35902624 5.26878586 49.75 17.4375 C50.9921875 19.6484375 50.9921875 19.6484375 51.75 21.4375 C47.09679927 28.15310839 42.26649998 33.92542359 34.75 37.4375 C34.0075 36.73625 33.265 36.035 32.5 35.3125 C20.63758672 25.42245948 6.64043617 23.12323322 -8.25 24.4375 C-17.12590621 26.19049148 -28.78824762 31.97574762 -35.25 38.4375 C-35.9925 37.4165625 -35.9925 37.4165625 -36.75 36.375 C-38.83124757 33.92953411 -40.82306844 32.00673083 -43.25 29.9375 C-46.29068944 27.32307543 -49.07161623 24.84714417 -51.25 21.4375 C-48.84243569 14.21480707 -38.79702439 10.50579191 -32.3125 7.1875 C-31.68142334 6.85854736 -31.05034668 6.52959473 -30.40014648 6.19067383 C-20.52135186 1.28944032 -10.95604525 -0.09787038 0 0 Z " transform="translate(98.25,29.5625)" style="fill: #FBC251;"/><path d="M0 0 C2.1095874 1.84713725 4.18251712 3.73102681 6.25 5.625 C7.06339844 6.34429687 7.87679687 7.06359375 8.71484375 7.8046875 C24.87796135 22.859964 35.2944323 45.61708143 36.25 67.625 C37.16948835 96.38774509 30.05373317 120.72399724 10.68359375 142.51171875 C0.48916132 153.1513229 -11.37077525 160.66839014 -24.75 166.625 C-25.8834082 167.13998047 -27.01681641 167.65496094 -28.18457031 168.18554688 C-33.74575371 170.2396537 -39.31529956 170.13044319 -45.18359375 170.1640625 C-46.37493423 170.17641937 -47.56627472 170.18877625 -48.79371643 170.20150757 C-51.31091431 170.22102288 -53.82818795 170.23229689 -56.34545898 170.23583984 C-60.14506084 170.24984359 -63.94129904 170.31714028 -67.74023438 170.38671875 C-92.71230625 170.6114513 -111.22027201 162.62964832 -129.13671875 145.23828125 C-147.48929205 126.88570795 -157.48264384 103.34653267 -157.9375 77.5 C-157.69009528 52.66056565 -150.57356734 30.1911214 -133.75 11.625 C-133.01394531 10.80773438 -132.27789062 9.99046875 -131.51953125 9.1484375 C-97.57873757 -26.61951147 -38.39871628 -32.49251093 0 0 Z M-68.734375 -17.29882812 C-85.93016716 -16.55184779 -102.31503515 -11.44482585 -115.75 -0.375 C-116.57371094 0.25148438 -117.39742187 0.87796875 -118.24609375 1.5234375 C-136.87025194 15.86715751 -150.76471692 36.54635351 -154.44824219 60.10205078 C-157.34811076 84.34739208 -152.99022736 109.9868141 -138.375 130 C-136.85923031 131.89599666 -135.31797222 133.77194192 -133.75 135.625 C-133.00492188 136.50929687 -132.25984375 137.39359375 -131.4921875 138.3046875 C-118.10950985 153.64580578 -100.07131946 166.50599675 -79.18261719 168.21777344 C-74.1212223 168.48470705 -69.07074084 168.51414092 -64.00341797 168.4621582 C-60.88417768 168.43757234 -57.77116346 168.48244077 -54.65234375 168.53320312 C-29.73193347 168.64407 -9.89896209 159.03857558 8.06640625 141.9453125 C19.32054248 130.63464242 26.08551022 116.91324915 30.25 101.625 C30.50749023 100.73868896 30.76498047 99.85237793 31.03027344 98.93920898 C37.85394946 74.09689026 32.55954499 47.82355785 20.38330078 25.57666016 C17.79790744 21.12434772 14.78609381 17.34822286 11.25 13.625 C10.44046875 12.72652344 9.6309375 11.82804687 8.796875 10.90234375 C-9.28845067 -8.31992491 -32.90124402 -15.91072725 -58.67578125 -17.5625 C-62.0426881 -17.64627995 -65.37159482 -17.42791122 -68.734375 -17.29882812 Z " transform="translate(159.75,27.375)" style="fill: #44769B;"/><path d="M0 0 C-2.25884679 5.33909241 -5.85391769 9.29236712 -10.5 12.625 C-14.39495486 15.42495811 -17.87335855 18.54633567 -21.375 21.8125 C-21.93550049 22.33505371 -22.49600098 22.85760742 -23.07348633 23.39599609 C-24.19066439 24.43934186 -25.30729096 25.48327849 -26.42333984 26.52783203 C-47.75994066 46.45036268 -47.75994066 46.45036268 -55.375 47.4375 C-61.26758744 46.72632565 -63.84214542 43.39536321 -67.4375 39.0625 C-69 36 -69 36 -69.125 33.0625 C-66.44720969 25.77295973 -61.60183795 22.54069595 -54.82495117 19.26928711 C-50.08976374 17.14170614 -45.25046258 15.33976222 -40.375 13.5625 C-39.32900635 13.17562012 -38.2830127 12.78874023 -37.20532227 12.39013672 C-35.11149405 11.61578863 -33.01686605 10.84359923 -30.92138672 10.07373047 C-26.92189287 8.60375103 -22.92880896 7.11702843 -18.9375 5.625 C-17.75027344 5.18414062 -16.56304687 4.74328125 -15.33984375 4.2890625 C-12.93614318 3.36131842 -10.60131261 2.39142164 -8.25 1.34765625 C-5.15372678 0.06374488 -3.29296419 -0.29936038 0 0 Z " transform="translate(154,76)" style="fill: #18304A;"/><path d="M0 0 C1.04220703 1.05767578 1.04220703 1.05767578 2.10546875 2.13671875 C5.09072138 5.12197138 8.19067808 7.97137652 11.3125 10.8125 C11.86228516 11.31458984 12.41207031 11.81667969 12.97851562 12.33398438 C14.31805239 13.55703968 15.65888992 14.77867008 17 16 C16.50686706 19.41083618 14.95779091 21.61304316 12.96459961 24.36669922 C6.51320256 33.37401658 4.42100793 42.22260988 2 53 C-9.385 52.505 -9.385 52.505 -21 52 C-22.03844006 33.72345494 -15.60977832 17.36370425 -3.5 3.625 C-2.34607024 2.40449737 -1.18452822 1.1908289 0 0 Z " transform="translate(46,50)" style="fill: #A3ABB3;"/><path d="M0 0 C6.36939251 -0.10273214 12.69502258 -0.01329994 19 1 C21.22909821 3.22909821 20.37128905 7.65945767 20.3828125 10.65771484 C20.007382 27.41521186 10.33521927 41.50084419 0 54 C-3.80633881 52.4688137 -5.85384783 50.14816717 -8.5 47.0625 C-11.15538749 43.97515736 -13.63943089 41.31421009 -17 39 C-16.7726559 35.36249447 -15.65202019 33.43882171 -13.375 30.75 C-6.60688529 22.18792717 -3.1872817 10.31179374 0 0 Z " transform="translate(153,102)" style="fill: #FA523B;"/><path d="M0 0 C2.8498315 2.22349491 4.46045251 4.03550129 5.875 7.375 C4.885 8.035 3.895 8.695 2.875 9.375 C2.32714844 8.95089844 1.77929688 8.52679688 1.21484375 8.08984375 C-3.89340526 4.31057009 -9.06946867 1.23991222 -14.8125 -1.4375 C-15.42939697 -1.7269751 -16.04629395 -2.0164502 -16.68188477 -2.31469727 C-33.16635223 -9.79044175 -51.84931989 -10.53707642 -69.125 -5.625 C-76.4188161 -2.59220859 -82.60230883 2.01581819 -88.8125 6.8359375 C-91.125 8.375 -91.125 8.375 -94.125 8.375 C-94.455 7.055 -94.785 5.735 -95.125 4.375 C-88.52519064 -2.22480936 -80.53776587 -5.84629577 -72.125 -9.625 C-71.14144531 -10.08648437 -70.15789062 -10.54796875 -69.14453125 -11.0234375 C-47.08334887 -19.60447671 -18.51862251 -13.77101387 0 0 Z " transform="translate(144.125,43.625)" style="fill: #D5A13B;"/><path d="M0 0 C1.32 0.33 2.64 0.66 4 1 C5.0283103 11.12314359 1.81868921 20.09632505 -3.875 28.4375 C-5.76544736 31.24057711 -6.00375728 31.79710693 -5.9375 35.375 C-5.16994632 38.11544458 -5.16994632 38.11544458 -3 40 C-0.54004974 40.5365984 -0.54004974 40.5365984 2 40 C3.71241775 38.12304581 3.71241775 38.12304581 4.9375 35.5625 C5.43765625 34.65886719 5.9378125 33.75523437 6.453125 32.82421875 C6.96359375 31.89222656 7.4740625 30.96023437 8 30 C9.03913579 28.27735499 10.10028809 26.56771359 11.1875 24.875 C11.65542969 24.12992188 12.12335938 23.38484375 12.60546875 22.6171875 C13.06566406 22.08351563 13.52585938 21.54984375 14 21 C14.99 21 15.98 21 17 21 C17 32.63692569 8.09916649 42.41444553 1 51 C-2.80633881 49.4688137 -4.85384783 47.14816717 -7.5 44.0625 C-10.15538749 40.97515736 -12.63943089 38.31421009 -16 36 C-15.7726559 32.36249447 -14.65202019 30.43882171 -12.375 27.75 C-6.18666796 19.94732048 -3.02032025 9.38668155 0 0 Z " transform="translate(152,105)" style="fill: #D62F1A;"/><path d="M0 0 C0 3.71341939 -0.98310569 4.63427472 -3.1875 7.5625 C-10.77700173 18.15107903 -16.46746152 30.79748361 -17 44 C-17.0515625 45.14855469 -17.103125 46.29710937 -17.15625 47.48046875 C-17.79707046 68.78112906 -12.06273008 87.16009496 1 104 C1.61488281 104.81082031 2.22976562 105.62164062 2.86328125 106.45703125 C14.29460179 120.43408484 33.14979086 130.71151165 51 133 C51 133.33 51 133.66 51 134 C33.42154913 134.76624017 17.74692247 123.72384124 5.24609375 112.53515625 C-10.77293644 97.36275074 -19.37763596 77.9923484 -20.1640625 55.8828125 C-20.62298502 37.02453363 -15.82910162 17.94606886 -3.44140625 3.13671875 C-2.0625 1.75 -2.0625 1.75 0 0 Z " transform="translate(36,50)" style="fill: #798899;"/><path d="M0 0 C1.64574566 -0.02688151 3.29161413 -0.04634123 4.9375 -0.0625 C5.85402344 -0.07410156 6.77054687 -0.08570312 7.71484375 -0.09765625 C10 0 10 0 11 1 C11.45506692 7.14340344 11.45506692 7.14340344 9.9375 10 C6.83813522 11.59967215 4.30041286 10.73342508 1 10 C0 9 0 9 -0.09765625 6.93359375 C-0.08605469 6.10988281 -0.07445313 5.28617187 -0.0625 4.4375 C-0.05347656 3.61121094 -0.04445313 2.78492187 -0.03515625 1.93359375 C-0.02355469 1.29550781 -0.01195313 0.65742187 0 0 Z " transform="translate(94,105)" style="fill: #F5F6F7;"/><path d="M0 0 C0 3.71341939 -0.98310569 4.63427472 -3.1875 7.5625 C-10.95663421 18.40169531 -15.95046174 30.61838713 -17 44 C-17.33 44 -17.66 44 -18 44 C-19.62038504 28.97928788 -12.8724314 15.82990854 -4 4 C-2.69352386 2.64033988 -1.36714641 1.29864016 0 0 Z " transform="translate(36,50)" style="fill: #8391A0;"/><path d="M0 0 C1.74787823 3.27430582 2.99252882 6.61342405 4.1875 10.125 C4.55230469 11.17945313 4.91710937 12.23390625 5.29296875 13.3203125 C6 16 6 16 5 18 C1.85863462 15.42979196 0.94123141 12.90973045 0 9 C-0.15241029 5.99112597 -0.12037983 3.00949576 0 0 Z " transform="translate(19,118)" style="fill: #7F8D9D;"/><path d="M0 0 C0.66 0.33 1.32 0.66 2 1 C-1.96 4.96 -5.92 8.92 -10 13 C-10 8.41771462 -7.08388033 6.1816619 -4 3 C-1.625 1.0625 -1.625 1.0625 0 0 Z " transform="translate(48,39)" style="fill: #EFF0F2;"/><path d="M0 0 C1.80330533 3.60661066 2.46599103 6.08393425 3 10 C2.01 9.67 1.02 9.34 0 9 C0 6.03 0 3.06 0 0 Z " transform="translate(19,118)" style="fill: #8996A5;"/></svg>